<svg xmlns="http://www.w3.org/2000/svg" width="270" height="130" viewBox="0 0 270 130" shape-rendering="crispEdges">
<rect width="270" height="130" fill="#303941"/>
<rect y="98" width="270" height="32" fill="#232c31"/>
<rect x="14" y="16" width="80" height="62" fill="#1e2b32"/>
<rect x="22" y="24" width="64" height="46" fill="#456b73"/>
<rect x="30" y="32" width="14" height="14" fill="#8ad6ce"/>
<rect x="52" y="30" width="22" height="18" fill="#d8b86c"/>
<rect x="108" y="18" width="142" height="14" fill="#616d72"/>
<rect x="120" y="42" width="36" height="42" fill="#48555b"/>
<rect x="128" y="50" width="20" height="26" fill="#7be0d2"/>
<rect x="168" y="40" width="62" height="12" fill="#7b6954"/>
<rect x="176" y="52" width="46" height="8" fill="#5b4e40"/>
<rect x="164" y="78" width="72" height="10" fill="#6f604c"/>
<rect x="178" y="88" width="8" height="28" fill="#4c4540"/>
<rect x="216" y="88" width="8" height="28" fill="#4c4540"/>
<rect x="238" y="24" width="10" height="52" fill="#7aa3a5"/>
<rect x="242" y="20" width="2" height="60" fill="#b7f0e6"/>
</svg>