<svg xmlns="http://www.w3.org/2000/svg" width="250" height="142" viewBox="0 0 250 142" shape-rendering="crispEdges">
<rect width="250" height="142" fill="#294936"/>
<rect y="96" width="250" height="46" fill="#4f3c2d"/>
<rect x="12" y="20" width="86" height="60" fill="#6b4b34"/>
<rect x="20" y="28" width="70" height="42" fill="#2e3f37"/>
<rect x="108" y="18" width="118" height="14" fill="#8a6a46"/>
<rect x="116" y="32" width="102" height="10" fill="#5f4934"/>
<rect x="126" y="52" width="18" height="24" fill="#b98a47"/>
<rect x="148" y="48" width="34" height="28" fill="#748a8d"/>
<rect x="186" y="54" width="22" height="22" fill="#c6a35b"/>
<rect x="118" y="86" width="98" height="10" fill="#73523b"/>
<rect x="132" y="96" width="8" height="28" fill="#4a392d"/>
<rect x="194" y="96" width="8" height="28" fill="#4a392d"/>
<rect x="28" y="108" width="38" height="10" fill="#6d7e76"/>
<rect x="34" y="101" width="26" height="7" fill="#9ea98f"/>
<rect x="212" y="104" width="20" height="20" fill="#75664d"/>
<rect x="216" y="108" width="12" height="12" fill="#d0b667"/>

<!-- Environment detail v3: workshop material and tool language. -->
<g opacity="0.92">
  <rect x="26" y="34" width="4" height="28" fill="#385247"/>
  <rect x="80" y="34" width="4" height="28" fill="#24362f"/>
  <rect x="154" y="55" width="4" height="21" fill="#9fb0aa"/>
  <rect x="164" y="55" width="4" height="21" fill="#5f7578"/>
  <rect x="174" y="55" width="4" height="21" fill="#9fb0aa"/>
  <rect x="190" y="58" width="14" height="3" fill="#e2c978"/>
  <rect x="190" y="65" width="14" height="3" fill="#8a713f"/>
  <rect x="122" y="89" width="18" height="3" fill="#b27745"/>
  <rect x="146" y="88" width="12" height="4" fill="#7e9b92"/>
  <rect x="164" y="88" width="18" height="3" fill="#c4aa63"/>
  <rect x="70" y="114" width="18" height="5" fill="#7d5740"/>
  <rect x="92" y="118" width="10" height="4" fill="#a56d44"/>
</g>
<path d="M102 68 C112 60 120 65 126 72 S144 82 154 72" fill="none" stroke="#b87345" stroke-width="2" opacity="0.8"/>
<path d="M214 116 h12 v-6 h8" fill="none" stroke="#e2c978" stroke-width="2" opacity="0.72"/>

</svg>